<svg width="22" height="22" viewBox="0 0 22 22" fill="none" xmlns="http://www.w3.org/2000/svg">
<g clip-path="url(#clip0)">
<path d="M21.9786 6.46806C21.9271 5.29912 21.7381 4.49548 21.4673 3.79911C21.1879 3.05994 20.7581 2.39816 20.1951 1.84802C19.6449 1.28931 18.9788 0.855178 18.2482 0.580191C17.5478 0.309402 16.7483 0.12037 15.5794 0.0688306C14.4017 0.0129267 14.0279 0 11.041 0C8.05404 0 7.68018 0.0129267 6.50687 0.0644657C5.33793 0.116005 4.53429 0.305205 3.83809 0.575827C3.09875 0.855178 2.43697 1.28495 1.88683 1.84802C1.32813 2.39816 0.894163 3.0643 0.619009 3.79492C0.34822 4.49548 0.159188 5.29475 0.107649 6.4637C0.0517451 7.64137 0.0388184 8.01524 0.0388184 11.0021C0.0388184 13.9891 0.0517451 14.3629 0.103284 15.5362C0.154823 16.7052 0.344023 17.5088 0.614812 18.2052C0.894163 18.9444 1.32813 19.6061 1.88683 20.1563C2.43697 20.715 3.10312 21.1491 3.83373 21.4241C4.53429 21.6949 5.33356 21.8839 6.50267 21.9355C7.67581 21.9872 8.04985 21.9999 11.0368 21.9999C14.0237 21.9999 14.3975 21.9872 15.5708 21.9355C16.7398 21.8839 17.5434 21.6949 18.2396 21.4241C19.7181 20.8525 20.8871 19.6835 21.4587 18.2052C21.7293 17.5046 21.9185 16.7052 21.9701 15.5362C22.0216 14.3629 22.0345 13.9891 22.0345 11.0021C22.0345 8.01524 22.0302 7.64137 21.9786 6.46806ZM19.9975 15.4503C19.9501 16.5247 19.7697 17.1049 19.6192 17.4917C19.2496 18.4501 18.4889 19.2108 17.5305 19.5805C17.1437 19.7309 16.5593 19.9113 15.4891 19.9585C14.3287 20.0102 13.9807 20.023 11.0453 20.023C8.10995 20.023 7.75757 20.0102 6.60139 19.9585C5.52696 19.9113 4.94677 19.7309 4.55997 19.5805C4.08303 19.4042 3.64889 19.1248 3.29652 18.7595C2.93121 18.4028 2.65186 17.973 2.47559 17.4961C2.32517 17.1093 2.1447 16.5247 2.09752 15.4546C2.04581 14.2943 2.03306 13.9461 2.03306 11.0107C2.03306 8.07534 2.04581 7.72296 2.09752 6.56694C2.1447 5.49251 2.32517 4.91232 2.47559 4.52553C2.65186 4.04841 2.93121 3.61444 3.30088 3.2619C3.65746 2.89659 4.08723 2.61724 4.56434 2.44114C4.95113 2.29072 5.53569 2.11024 6.60575 2.0629C7.76613 2.01136 8.11431 1.99844 11.0495 1.99844C13.9892 1.99844 14.3373 2.01136 15.4934 2.0629C16.5679 2.11024 17.1481 2.29072 17.5349 2.44114C18.0118 2.61724 18.4459 2.89659 18.7983 3.2619C19.1636 3.61864 19.443 4.04841 19.6192 4.52553C19.7697 4.91232 19.9501 5.49671 19.9975 6.56694C20.049 7.72732 20.0619 8.07534 20.0619 11.0107C20.0619 13.9461 20.049 14.2899 19.9975 15.4503Z" fill="#273043"/>
<path d="M11.0409 5.35059C7.92086 5.35059 5.3894 7.88187 5.3894 11.0021C5.3894 14.1223 7.92086 16.6536 11.0409 16.6536C14.1611 16.6536 16.6924 14.1223 16.6924 11.0021C16.6924 7.88187 14.1611 5.35059 11.0409 5.35059ZM11.0409 14.6681C9.01678 14.6681 7.37491 13.0264 7.37491 11.0021C7.37491 8.97779 9.01678 7.3361 11.0409 7.3361C13.0652 7.3361 14.7069 8.97779 14.7069 11.0021C14.7069 13.0264 13.0652 14.6681 11.0409 14.6681Z" fill="#273043"/>
<path d="M18.2353 5.12699C18.2353 5.85558 17.6446 6.44635 16.9158 6.44635C16.1872 6.44635 15.5964 5.85558 15.5964 5.12699C15.5964 4.39822 16.1872 3.80762 16.9158 3.80762C17.6446 3.80762 18.2353 4.39822 18.2353 5.12699Z" fill="#273043"/>
</g>
<defs>
<clipPath id="clip0">
<rect width="22" height="22" fill="white"/>
</clipPath>
</defs>
</svg>
