<svg width="77" height="76" viewBox="0 0 77 76" fill="none" xmlns="http://www.w3.org/2000/svg">
<g filter="url(#filter0_ddd)">
<rect x="10.5317" y="9" width="56" height="56" rx="28" fill="#121212"/>
<rect x="10.5317" y="9" width="56" height="56" rx="28" fill="white" fill-opacity="0.09"/>
</g>
<mask id="mask0" mask-type="alpha" maskUnits="userSpaceOnUse" x="10" y="9" width="57" height="56">
<rect x="10.5317" y="9" width="56" height="56" rx="28" fill="white"/>
<rect x="10.5317" y="9" width="56" height="56" rx="28" stroke="white"/>
</mask>
<g mask="url(#mask0)">
<rect x="10.5317" y="9" width="56" height="56" fill="#03CEA4"/>
</g>
<mask id="mask1" mask-type="alpha" maskUnits="userSpaceOnUse" x="10" y="9" width="57" height="56">
<rect x="10.5317" y="9" width="56" height="56" rx="28" fill="white"/>
</mask>
<g mask="url(#mask1)">
<path d="M33.5317 30V44L44.5317 37L33.5317 30Z" fill="#EEEEEE"/>
<mask id="mask2" mask-type="alpha" maskUnits="userSpaceOnUse" x="33" y="32" width="12" height="14">
<path d="M33.5317 32V46L44.5317 39L33.5317 32Z" fill="#EEEEEE"/>
</mask>
<g mask="url(#mask2)">
</g>
</g>
<defs>
<filter id="filter0_ddd" x="0.531738" y="0" width="76" height="76" filterUnits="userSpaceOnUse" color-interpolation-filters="sRGB">
<feFlood flood-opacity="0" result="BackgroundImageFix"/>
<feColorMatrix in="SourceAlpha" type="matrix" values="0 0 0 0 0 0 0 0 0 0 0 0 0 0 0 0 0 0 127 0"/>
<feOffset dy="2"/>
<feGaussianBlur stdDeviation="2"/>
<feColorMatrix type="matrix" values="0 0 0 0 0 0 0 0 0 0 0 0 0 0 0 0 0 0 0.2 0"/>
<feBlend mode="normal" in2="BackgroundImageFix" result="effect1_dropShadow"/>
<feColorMatrix in="SourceAlpha" type="matrix" values="0 0 0 0 0 0 0 0 0 0 0 0 0 0 0 0 0 0 127 0"/>
<feOffset dy="1"/>
<feGaussianBlur stdDeviation="5"/>
<feColorMatrix type="matrix" values="0 0 0 0 0 0 0 0 0 0 0 0 0 0 0 0 0 0 0.12 0"/>
<feBlend mode="normal" in2="effect1_dropShadow" result="effect2_dropShadow"/>
<feColorMatrix in="SourceAlpha" type="matrix" values="0 0 0 0 0 0 0 0 0 0 0 0 0 0 0 0 0 0 127 0"/>
<feOffset dy="4"/>
<feGaussianBlur stdDeviation="2.5"/>
<feColorMatrix type="matrix" values="0 0 0 0 0 0 0 0 0 0 0 0 0 0 0 0 0 0 0.14 0"/>
<feBlend mode="normal" in2="effect2_dropShadow" result="effect3_dropShadow"/>
<feBlend mode="normal" in="SourceGraphic" in2="effect3_dropShadow" result="shape"/>
</filter>
</defs>
</svg>
