<svg width="22" height="22" viewBox="0 0 22 22" fill="none" xmlns="http://www.w3.org/2000/svg">
<g clip-path="url(#clip0)">
<path d="M19.9642 11.1381C19.7369 10.1504 18.9289 9.4218 17.9565 9.31334C15.6543 9.05617 13.323 9.05495 11.003 9.05617C8.68214 9.05495 6.3513 9.05617 4.04835 9.31334C3.07642 9.42204 2.26898 10.1506 2.04189 11.1381C1.71824 12.5445 1.71436 14.0798 1.71436 15.528C1.71436 16.9762 1.71436 18.5113 2.03801 19.9178C2.2651 20.9052 3.07254 21.6338 4.04496 21.7425C6.34742 21.9999 8.67826 22.0009 10.9989 21.9999C13.3198 22.0011 15.6502 21.9999 17.9534 21.7425C18.9253 21.6338 19.7332 20.9052 19.9603 19.9178C20.2837 18.5113 20.2854 16.9762 20.2854 15.528C20.2852 14.0796 20.2876 12.5445 19.9642 11.1381ZM7.01146 12.2282H5.66735V19.3704H4.41883V12.2282H3.09923V11.0583H7.01146V12.2282ZM10.4026 19.3706H9.27947V18.695C8.83329 19.2064 8.40968 19.4558 7.99699 19.4558C7.63524 19.4558 7.38631 19.3093 7.27398 18.9956C7.21284 18.8083 7.17499 18.5118 7.17499 18.0746V13.1771H8.29711V17.7371C8.29711 18.0001 8.29711 18.1367 8.3073 18.1736C8.33423 18.3478 8.41939 18.4361 8.56981 18.4361C8.79496 18.4361 9.0303 18.2626 9.27923 17.9106V13.1771H10.4023L10.4026 19.3706ZM14.6661 17.5117C14.6661 18.0845 14.6275 18.4972 14.5526 18.7597C14.4026 19.2205 14.1025 19.4558 13.6561 19.4558C13.2567 19.4558 12.8715 19.2341 12.4961 18.7706V19.3709H11.374V11.0583H12.4961V13.7729C12.8586 13.3268 13.2434 13.1011 13.6561 13.1011C14.1025 13.1011 14.4029 13.3362 14.5526 13.7999C14.628 14.049 14.6661 14.4586 14.6661 15.045V17.5117ZM18.9015 16.4784H16.657V17.5762C16.657 18.1495 16.8446 18.4358 17.2304 18.4358C17.5067 18.4358 17.6676 18.2857 17.7316 17.9858C17.742 17.9249 17.7568 17.6755 17.7568 17.2254H18.9018V17.3892C18.9018 17.7509 18.8879 18.0001 18.8777 18.1122C18.8401 18.3606 18.7518 18.586 18.6157 18.7845C18.3049 19.2343 17.8444 19.456 17.2583 19.456C16.6711 19.456 16.2242 19.2447 15.8998 18.8218C15.6618 18.5118 15.5395 18.0236 15.5395 17.3654V15.1961C15.5395 14.534 15.648 14.0498 15.8865 13.7368C16.2106 13.3129 16.6573 13.1018 17.2306 13.1018C17.7937 13.1018 18.2401 13.3129 18.5546 13.7368C18.7897 14.0498 18.902 14.534 18.902 15.1961V16.4784H18.9015Z" fill="#273043"/>
<path d="M17.2203 14.1114C16.8453 14.1114 16.6572 14.3979 16.6572 14.9705V15.5436H17.7793V14.9705C17.7791 14.3979 17.5916 14.1114 17.2203 14.1114Z" fill="#273043"/>
<path d="M13.0558 14.1114C12.8709 14.1114 12.6836 14.1987 12.4961 14.3843V18.1592C12.6834 18.347 12.8709 18.4358 13.0558 18.4358C13.3795 18.4358 13.544 18.1592 13.544 17.6V14.9564C13.544 14.3979 13.3795 14.1114 13.0558 14.1114Z" fill="#273043"/>
<path d="M13.6823 8.48524C14.096 8.48524 14.5264 8.23389 14.9779 7.71662V8.39935H16.1121V2.14001H14.9779V6.92398C14.7265 7.27918 14.4883 7.45484 14.2614 7.45484C14.1095 7.45484 14.0203 7.36507 13.9955 7.18917C13.9817 7.15205 13.9817 7.014 13.9817 6.74833V2.14001H12.8511V7.08945C12.8511 7.5315 12.8889 7.83065 12.9515 8.02014C13.0655 8.33724 13.3171 8.48524 13.6823 8.48524Z" fill="#273043"/>
<path d="M5.78651 4.99747V8.39924H7.04425V4.99747L8.55722 0H7.28541L6.42727 3.29841L5.53443 0H4.21094C4.47612 0.778566 4.75198 1.56101 5.01716 2.34031C5.42064 3.51167 5.67248 4.39481 5.78651 4.99747Z" fill="#273043"/>
<path d="M10.2429 8.48525C10.8111 8.48525 11.2527 8.27151 11.5659 7.8445C11.8039 7.53127 11.918 7.03779 11.918 6.37252V4.1807C11.918 3.51156 11.8042 3.02244 11.5659 2.7063C11.2527 2.27808 10.8114 2.06433 10.2429 2.06433C9.67761 2.06433 9.23628 2.27808 8.92234 2.7063C8.68141 3.02244 8.56738 3.51156 8.56738 4.1807V6.37252C8.56738 7.03779 8.68141 7.53127 8.92234 7.8445C9.23604 8.27151 9.67761 8.48525 10.2429 8.48525ZM9.70163 3.95337C9.70163 3.37423 9.87729 3.08552 10.2429 3.08552C10.6085 3.08552 10.7837 3.37399 10.7837 3.95337V6.58627C10.7837 7.1654 10.6085 7.45509 10.2429 7.45509C9.87729 7.45509 9.70163 7.1654 9.70163 6.58627V3.95337Z" fill="#273043"/>
</g>
<defs>
<clipPath id="clip0">
<rect width="22" height="22" fill="white"/>
</clipPath>
</defs>
</svg>
