<svg width="22" height="22" viewBox="0 0 22 22" fill="none" xmlns="http://www.w3.org/2000/svg">
<g clip-path="url(#clip0)">
<path d="M21.9947 22V21.9991H22.0002V13.9306C22.0002 9.98345 21.1504 6.94287 16.5359 6.94287C14.3176 6.94287 12.8289 8.1602 12.2212 9.31429H12.157V7.31137H7.78174V21.9991H12.3376V14.7263C12.3376 12.8114 12.7006 10.9597 15.072 10.9597C17.4086 10.9597 17.4434 13.145 17.4434 14.8491V22H21.9947Z" fill="#273043"/>
<path d="M0.362793 7.31244H4.92413V22.0002H0.362793V7.31244Z" fill="#273043"/>
<path d="M2.64183 0C1.18342 0 0 1.18342 0 2.64183C0 4.10025 1.18342 5.30842 2.64183 5.30842C4.10025 5.30842 5.28367 4.10025 5.28367 2.64183C5.28275 1.18342 4.09933 0 2.64183 0V0Z" fill="#273043"/>
</g>
<defs>
<clipPath id="clip0">
<rect width="22" height="22" fill="white"/>
</clipPath>
</defs>
</svg>
