<svg width="22" height="22" viewBox="0 0 22 22" fill="none" xmlns="http://www.w3.org/2000/svg">
<g clip-path="url(#clip0)">
<path d="M18.7889 1.37953C15.7382 1.26862 13.6776 3.01762 12.5904 6.59903C13.1496 6.34878 13.6932 6.23695 14.2193 6.23695C15.3368 6.23695 15.8308 6.87587 15.6988 8.14545C15.6328 8.91453 15.1415 10.0329 14.2212 11.5041C13.2963 12.9754 12.6051 13.7124 12.1449 13.7124C10.7498 13.7124 9.911 7.03537 9.62683 5.21212C9.23175 2.67753 8.1785 1.49228 6.46708 1.6582C4.89592 1.80762 2.15417 4.63645 0 6.55412L1.03492 7.90345C2.02033 7.20495 2.59508 6.85478 2.75917 6.85478C4.47425 6.85478 5.30475 12.6912 6.63667 17.0316C7.53042 19.4269 8.602 20.625 9.89358 20.625C11.9689 20.625 14.4971 18.6596 17.4928 14.7271C20.3848 10.9624 21.8827 7.99512 21.9789 5.83087L21.9908 5.8217C22.1137 2.92045 21.0549 1.43545 18.7889 1.37953Z" fill="#273043"/>
</g>
<defs>
<clipPath id="clip0">
<rect width="22" height="22" fill="white"/>
</clipPath>
</defs>
</svg>
